<svg width="8" height="14" viewBox="0 0 8 14" fill="none" xmlns="http://www.w3.org/2000/svg">
<path d="M6.39983 4.88L1.80983 0.289999C1.62247 0.103748 1.36902 -0.000793457 1.10483 -0.000793457C0.840647 -0.000793457 0.587195 0.103748 0.399833 0.289999C0.306104 0.382962 0.23171 0.493563 0.180942 0.615422C0.130173 0.737282 0.104034 0.867987 0.104034 0.999999C0.104034 1.13201 0.130173 1.26272 0.180942 1.38458C0.23171 1.50644 0.306104 1.61704 0.399833 1.71L4.99983 6.29C5.09356 6.38296 5.16796 6.49356 5.21872 6.61542C5.26949 6.73728 5.29563 6.86799 5.29563 7C5.29563 7.13201 5.26949 7.26272 5.21872 7.38458C5.16796 7.50644 5.09356 7.61704 4.99983 7.71L0.399833 12.29C0.211529 12.477 0.105214 12.7311 0.104277 12.9965C0.103339 13.2618 0.207856 13.5167 0.394834 13.705C0.581811 13.8933 0.835934 13.9996 1.1013 14.0006C1.36666 14.0015 1.62153 13.897 1.80983 13.71L6.39983 9.12C6.96164 8.5575 7.27719 7.795 7.27719 7C7.27719 6.205 6.96164 5.4425 6.39983 4.88Z" fill="#B3BAC5"/>
</svg>
