<svg width="24" height="24" viewBox="0 0 24 24" fill="none" xmlns="http://www.w3.org/2000/svg">
<g clip-path="url(#clip0_46_247)">
<path d="M24 15.9999V20.9999C24 21.7956 23.6839 22.5586 23.1213 23.1212C22.5587 23.6839 21.7956 23.9999 21 23.9999H16C14.5971 23.9985 13.2192 23.6282 12.0046 22.9261C10.7901 22.224 9.78144 21.2149 9.07999 19.9999C9.83386 19.9945 10.5852 19.9114 11.322 19.7519C11.8831 20.4536 12.595 21.0199 13.4048 21.4091C14.2146 21.7982 15.1016 22.0002 16 21.9999H21C21.2652 21.9999 21.5196 21.8946 21.7071 21.707C21.8946 21.5195 22 21.2651 22 20.9999V15.9999C21.9998 15.1012 21.7972 14.214 21.4074 13.4042C21.0175 12.5943 20.4504 11.8827 19.748 11.3219C19.9088 10.5852 19.9933 9.83393 20 9.07992C21.2149 9.78137 22.2241 10.79 22.9261 12.0046C23.6282 13.2192 23.9986 14.597 24 15.9999ZM17.977 9.65092C18.0705 8.36256 17.8856 7.06916 17.4348 5.85862C16.9841 4.64807 16.278 3.54874 15.3646 2.63534C14.4512 1.72193 13.3518 1.01585 12.1413 0.565077C10.9308 0.114301 9.63735 -0.0706063 8.34899 0.0229194C6.06591 0.283652 3.95692 1.3701 2.41917 3.07766C0.881419 4.78523 0.0210195 6.99609 -7.62939e-06 9.29392L-7.62939e-06 14.3339C-7.62939e-06 16.8659 1.50699 17.9999 2.99999 17.9999H8.69999C10.9988 17.9801 13.211 17.1203 14.9198 15.5825C16.6286 14.0446 17.7159 11.9349 17.977 9.65092ZM13.95 4.05092C14.6599 4.76242 15.2087 5.61812 15.5593 6.56011C15.9099 7.5021 16.054 8.5084 15.982 9.51092C15.7686 11.2946 14.9105 12.9387 13.5693 14.1339C12.2281 15.329 10.4964 15.9926 8.69999 15.9999H2.99999C2.07199 15.9999 1.99999 14.7249 1.99999 14.3339V9.29392C2.00833 7.4983 2.67264 5.76762 3.86791 4.4276C5.06318 3.08757 6.70699 2.23059 8.48999 2.01792C8.65599 2.00592 8.82199 1.99992 8.98799 1.99992C9.90926 1.99906 10.8217 2.17976 11.6731 2.53168C12.5245 2.8836 13.2982 3.39985 13.95 4.05092Z" fill="#5C6A83"/>
</g>
<defs>
<clipPath id="clip0_46_247">
<rect width="24" height="24" fill="white"/>
</clipPath>
</defs>
</svg>
