<svg width="14" height="14" viewBox="0 0 14 14" fill="none" xmlns="http://www.w3.org/2000/svg">
<path d="M12.9999 0.99994C12.8124 0.812469 12.5581 0.707153 12.2929 0.707153C12.0278 0.707153 11.7735 0.812469 11.5859 0.99994L6.99994 5.58594L2.41394 0.99994C2.22641 0.812469 1.9721 0.707153 1.70694 0.707153C1.44178 0.707153 1.18747 0.812469 0.99994 0.99994C0.812469 1.18747 0.707153 1.44178 0.707153 1.70694C0.707153 1.9721 0.812469 2.22641 0.99994 2.41394L5.58594 6.99994L0.99994 11.5859C0.812469 11.7735 0.707153 12.0278 0.707153 12.2929C0.707153 12.5581 0.812469 12.8124 0.99994 12.9999C1.18747 13.1874 1.44178 13.2927 1.70694 13.2927C1.9721 13.2927 2.22641 13.1874 2.41394 12.9999L6.99994 8.41394L11.5859 12.9999C11.7735 13.1874 12.0278 13.2927 12.2929 13.2927C12.5581 13.2927 12.8124 13.1874 12.9999 12.9999C13.1874 12.8124 13.2927 12.5581 13.2927 12.2929C13.2927 12.0278 13.1874 11.7735 12.9999 11.5859L8.41394 6.99994L12.9999 2.41394C13.1874 2.22641 13.2927 1.9721 13.2927 1.70694C13.2927 1.44178 13.1874 1.18747 12.9999 0.99994Z" fill="#374957"/>
</svg>
