<svg width="20" height="19" viewBox="0 0 20 19" fill="none" xmlns="http://www.w3.org/2000/svg">
<path d="M13.7113 0.000668118C12.409 -0.0181751 11.051 0.359312 9.99866 1.41918C8.93812 0.361375 7.56718 0.000590572 6.30018 0.000590572C3.15187 0.000590572 0 2.60904 0 6.30057C0 9.85986 2.27654 12.8231 4.52818 14.8376C5.66746 15.8569 6.83594 16.6661 7.78489 17.2234C8.25906 17.5019 8.68646 17.7222 9.0352 17.8756C9.20895 17.9521 9.37201 18.0158 9.51723 18.0619C9.64358 18.102 9.82168 18.1505 10.0003 18.1505C10.1789 18.1505 10.357 18.102 10.4834 18.0619C10.6286 18.0158 10.7916 17.9521 10.9654 17.8756C11.3141 17.7222 11.7415 17.5019 12.2157 17.2234C13.1646 16.6661 14.3331 15.8569 15.4724 14.8376C17.724 12.8231 20.0006 9.85986 20.0006 6.30056C20.0006 2.60029 16.8414 0.0459583 13.7113 0.000668118Z" fill="#F74440"/>
</svg>
