<svg width="20" height="20" viewBox="0 0 20 20" fill="none" xmlns="http://www.w3.org/2000/svg">
<g clip-path="url(#clip0_38_618)">
<path d="M14.5833 1.59711C13.6449 1.6117 12.727 1.87365 11.9223 2.3565C11.1175 2.83935 10.4545 3.526 9.99999 4.34711C9.54552 3.526 8.88243 2.83935 8.07769 2.3565C7.27294 1.87365 6.35503 1.6117 5.41666 1.59711C3.92077 1.6621 2.51141 2.31649 1.49648 3.4173C0.48154 4.51812 -0.0564681 5.97588 -9.32673e-06 7.47211C-9.32673e-06 11.2613 3.98832 15.3996 7.33332 18.2054C8.08017 18.833 9.02445 19.1771 9.99999 19.1771C10.9755 19.1771 11.9198 18.833 12.6667 18.2054C16.0117 15.3996 20 11.2613 20 7.47211C20.0564 5.97588 19.5184 4.51812 18.5035 3.4173C17.4886 2.31649 16.0792 1.6621 14.5833 1.59711ZM11.5958 16.9304C11.1491 17.3066 10.584 17.5129 9.99999 17.5129C9.41603 17.5129 8.85084 17.3066 8.40416 16.9304C4.12249 13.3379 1.66666 9.89127 1.66666 7.47211C1.60969 6.4177 1.97196 5.38355 2.67446 4.59519C3.37696 3.80683 4.36269 3.32823 5.41666 3.26377C6.47063 3.32823 7.45636 3.80683 8.15885 4.59519C8.86135 5.38355 9.22362 6.4177 9.16666 7.47211C9.16666 7.69312 9.25445 7.90508 9.41074 8.06136C9.56701 8.21764 9.77898 8.30544 9.99999 8.30544C10.221 8.30544 10.433 8.21764 10.5892 8.06136C10.7455 7.90508 10.8333 7.69312 10.8333 7.47211C10.7764 6.4177 11.1386 5.38355 11.8411 4.59519C12.5436 3.80683 13.5294 3.32823 14.5833 3.26377C15.6373 3.32823 16.623 3.80683 17.3255 4.59519C18.028 5.38355 18.3903 6.4177 18.3333 7.47211C18.3333 9.89127 15.8775 13.3379 11.5958 16.9271V16.9304Z" fill="#5C6A83"/>
</g>
<defs>
<clipPath id="clip0_38_618">
<rect width="20" height="20" fill="white"/>
</clipPath>
</defs>
</svg>
