<svg width="50" height="50" viewBox="0 0 50 50" fill="none" xmlns="http://www.w3.org/2000/svg">
<path d="M46.6276 1L27.8713 16.004L31.3547 7.152L46.6276 1Z" fill="#E17726" stroke="#E17726" stroke-linecap="round" stroke-linejoin="round"/>
<path d="M3.37237 1L21.958 16.146L18.6453 7.152L3.37237 1Z" fill="#E27625" stroke="#E27625" stroke-linecap="round" stroke-linejoin="round"/>
<path d="M39.8852 35.782L34.8957 44.026L45.5722 47.192L48.6235 35.964L39.8852 35.782Z" fill="#E27625" stroke="#E27625" stroke-linecap="round" stroke-linejoin="round"/>
<path d="M1.39508 35.964L4.42777 47.192L15.1043 44.026L10.1333 35.782L1.39508 35.964Z" fill="#E27625" stroke="#E27625" stroke-linecap="round" stroke-linejoin="round"/>
<path d="M14.5201 21.852L11.5449 26.706L22.1287 27.214L21.7707 14.928L14.5201 21.852Z" fill="#E27625" stroke="#E27625" stroke-linecap="round" stroke-linejoin="round"/>
<path d="M35.4799 21.852L28.1162 14.786L27.8713 27.214L38.4551 26.706L35.4799 21.852Z" fill="#E27625" stroke="#E27625" stroke-linecap="round" stroke-linejoin="round"/>
<path d="M15.1043 44.026L21.4888 40.674L15.9891 36.046L15.1043 44.026Z" fill="#E27625" stroke="#E27625" stroke-linecap="round" stroke-linejoin="round"/>
<path d="M28.5112 40.674L34.8957 44.026L34.0109 36.046L28.5112 40.674Z" fill="#E27625" stroke="#E27625" stroke-linecap="round" stroke-linejoin="round"/>
<path d="M34.8957 44.026L28.5112 40.674L29.0195 45.162L28.9638 47.05L34.8957 44.026Z" fill="#D5BFB2" stroke="#D5BFB2" stroke-linecap="round" stroke-linejoin="round"/>
<path d="M15.1043 44.026L21.0362 47.05L20.9991 45.162L21.4888 40.674L15.1043 44.026Z" fill="#D5BFB2" stroke="#D5BFB2" stroke-linecap="round" stroke-linejoin="round"/>
<path d="M21.1493 33.08L15.8389 31.396L19.5857 29.548L21.1493 33.08Z" fill="#233447" stroke="#233447" stroke-linecap="round" stroke-linejoin="round"/>
<path d="M28.8507 33.08L30.4143 29.548L34.1797 31.396L28.8507 33.08Z" fill="#233447" stroke="#233447" stroke-linecap="round" stroke-linejoin="round"/>
<path d="M15.1043 44.026L16.0262 35.782L10.1333 35.964L15.1043 44.026Z" fill="#CC6228" stroke="#CC6228" stroke-linecap="round" stroke-linejoin="round"/>
<path d="M33.9738 35.782L34.8957 44.026L39.8852 35.964L33.9738 35.782Z" fill="#CC6228" stroke="#CC6228" stroke-linecap="round" stroke-linejoin="round"/>
<path d="M38.4551 26.706L27.8713 27.214L28.8507 33.08L30.4143 29.548L34.1797 31.396L38.4551 26.706Z" fill="#CC6228" stroke="#CC6228" stroke-linecap="round" stroke-linejoin="round"/>
<path d="M15.8389 31.396L19.5857 29.548L21.1493 33.08L22.1287 27.214L11.5449 26.706L15.8389 31.396Z" fill="#CC6228" stroke="#CC6228" stroke-linecap="round" stroke-linejoin="round"/>
<path d="M11.5449 26.706L15.9891 36.046L15.8389 31.396L11.5449 26.706Z" fill="#E27525" stroke="#E27525" stroke-linecap="round" stroke-linejoin="round"/>
<path d="M34.1797 31.396L34.0109 36.046L38.4551 26.706L34.1797 31.396Z" fill="#E27525" stroke="#E27525" stroke-linecap="round" stroke-linejoin="round"/>
<path d="M22.1287 27.214L21.1493 33.08L22.3921 40.004L22.6555 30.888L22.1287 27.214Z" fill="#E27525" stroke="#E27525" stroke-linecap="round" stroke-linejoin="round"/>
<path d="M27.8713 27.214L27.3631 30.868L27.6079 40.004L28.8507 33.08L27.8713 27.214Z" fill="#E27525" stroke="#E27525" stroke-linecap="round" stroke-linejoin="round"/>
<path d="M28.8507 33.08L27.6079 40.004L28.5112 40.674L34.0109 36.046L34.1797 31.396L28.8507 33.08Z" fill="#F5841F" stroke="#F5841F" stroke-linecap="round" stroke-linejoin="round"/>
<path d="M15.8389 31.396L15.9891 36.046L21.4888 40.674L22.3921 40.004L21.1493 33.08L15.8389 31.396Z" fill="#F5841F" stroke="#F5841F" stroke-linecap="round" stroke-linejoin="round"/>
<path d="M28.9638 47.05L29.0195 45.162L28.5502 44.716H21.4498L20.9991 45.162L21.0362 47.05L15.1043 44.026L17.1762 45.852L21.3942 49H28.6059L32.8238 45.852L34.8957 44.026L28.9638 47.05Z" fill="#C0AC9D" stroke="#C0AC9D" stroke-linecap="round" stroke-linejoin="round"/>
<path d="M28.5112 40.674L27.6079 40.004H22.3921L21.4887 40.674L20.9991 45.162L21.4498 44.716H28.5502L29.0195 45.162L28.5112 40.674Z" fill="#161616" stroke="#161616" stroke-linecap="round" stroke-linejoin="round"/>
<path d="M47.4178 16.98L49 8.696L46.6276 1L28.5112 15.498L35.4799 21.852L45.3274 24.96L47.4939 22.218L46.5516 21.488L48.0577 20.004L46.9096 19.03L48.4157 17.792L47.4178 16.98Z" fill="#763E1A" stroke="#763E1A" stroke-linecap="round" stroke-linejoin="round"/>
<path d="M1 8.696L2.60074 16.98L1.58428 17.792L3.09043 19.03L1.94227 20.004L3.44841 21.488L2.50615 22.218L4.67262 24.96L14.5201 21.852L21.4888 15.498L3.37236 1L1 8.696Z" fill="#763E1A" stroke="#763E1A" stroke-linecap="round" stroke-linejoin="round"/>
<path d="M45.3274 24.96L35.4799 21.852L38.4551 26.706L34.0109 36.046L39.8852 35.964H48.6235L45.3274 24.96Z" fill="#F5841F" stroke="#F5841F" stroke-linecap="round" stroke-linejoin="round"/>
<path d="M14.5201 21.852L4.67261 24.96L1.39508 35.964H10.1333L15.9891 36.046L11.5449 26.706L14.5201 21.852Z" fill="#F5841F" stroke="#F5841F" stroke-linecap="round" stroke-linejoin="round"/>
<path d="M27.8713 27.214L28.5112 15.498L31.3547 7.15201H18.6453L21.4888 15.498L22.1287 27.214L22.3735 30.908L22.3921 40.004H27.6079L27.6265 30.908L27.8713 27.214Z" fill="#F5841F" stroke="#F5841F" stroke-linecap="round" stroke-linejoin="round"/>
</svg>
