<svg width="21" height="19" viewBox="0 0 21 19" fill="none" xmlns="http://www.w3.org/2000/svg">
<path d="M10.3401 6.17414L13.3463 9.18027L13.3606 9.02281C13.3606 7.44338 12.077 6.15982 10.4976 6.15982L10.3401 6.17414Z" fill="black"/>
<path d="M10.4976 4.2512C13.1316 4.2512 15.2693 6.38891 15.2693 9.02286C15.2693 9.6384 15.1452 10.2253 14.9305 10.7645L17.7219 13.5559C19.1629 12.3535 20.2986 10.7979 21 9.02286C19.3443 4.83337 15.2741 1.86539 10.4977 1.86539C9.16158 1.86539 7.88281 2.10396 6.69467 2.53341L8.75602 4.58997C9.29516 4.38004 9.88207 4.2512 10.4976 4.2512Z" fill="black"/>
<path d="M0.954313 1.65064L3.13018 3.82651L3.56442 4.26074C1.98977 5.49182 0.744376 7.12851 0 9.02283C1.651 13.2123 5.72597 16.1803 10.4976 16.1803C11.9769 16.1803 13.3892 15.894 14.6824 15.3739L15.088 15.7795L17.8699 18.5661L19.0866 17.3541L2.17108 0.433868L0.954313 1.65064ZM6.23178 6.92332L7.70622 8.39776C7.66327 8.60295 7.63464 8.8081 7.63464 9.02283C7.63464 10.6023 8.9182 11.8858 10.4976 11.8858C10.7124 11.8858 10.9175 11.8572 11.118 11.8142L12.5924 13.2887C11.9577 13.6036 11.2516 13.7945 10.4976 13.7945C7.86368 13.7945 5.72597 11.6568 5.72597 9.02283C5.72597 8.26892 5.91685 7.5627 6.23178 6.92332Z" fill="black"/>
</svg>
