<svg width="22" height="22" viewBox="0 0 22 22" fill="none" xmlns="http://www.w3.org/2000/svg">
<g clip-path="url(#clip0_46_273)">
<path d="M-2.47955e-05 4.58786L-2.47955e-05 17.4166C7.82013e-05 18.1888 0.195297 18.9485 0.567505 19.6251C0.939713 20.3017 1.47684 20.8733 2.12902 21.2868C2.78121 21.7003 3.5273 21.9424 4.29803 21.9904C5.06876 22.0385 5.83914 21.8911 6.53764 21.5618L19.3416 15.157C20.1319 14.7899 20.8011 14.2052 21.2709 13.4713C21.7406 12.7374 21.9915 11.8848 21.994 11.0135C21.9965 10.1421 21.7505 9.28813 21.285 8.55157C20.8194 7.81501 20.1536 7.22642 19.3655 6.85478L6.53214 0.43811L6.50831 0.430777C5.81012 0.107656 5.04182 -0.0345174 4.27424 0.017361C3.50666 0.0692394 2.76448 0.3135 2.11612 0.72763C1.46776 1.14176 0.934072 1.71243 0.564253 2.38705C0.194433 3.06167 0.000377655 3.81853 -2.47955e-05 4.58786ZM1.83331 7.70453L6.81814 10.1951C6.97255 10.2652 7.10336 10.3785 7.19478 10.5213C7.2862 10.6641 7.33431 10.8304 7.33331 10.9999C7.3332 11.1741 7.2821 11.3444 7.18632 11.4899C7.09054 11.6354 6.95426 11.7496 6.79431 11.8185L1.83331 14.2999L1.83331 7.70453ZM5.73098 2.08811L18.5753 8.50478C19.0528 8.72657 19.4566 9.08077 19.7387 9.52529C20.0208 9.96982 20.1694 10.486 20.1668 11.0125C20.1642 11.5389 20.0105 12.0536 19.724 12.4953C19.4375 12.937 19.0302 13.2872 18.5506 13.5043L5.74197 19.9099C5.32298 20.1046 4.86168 20.1906 4.4007 20.1599C3.93971 20.1292 3.49388 19.9829 3.10437 19.7344C2.71486 19.4859 2.39423 19.1433 2.17208 18.7382C1.94993 18.3332 1.83342 17.8786 1.83331 17.4166V16.3496L7.58997 13.4749C8.05884 13.2573 8.45608 12.9107 8.73529 12.4757C9.0145 12.0407 9.16415 11.5352 9.16674 11.0183C9.16934 10.5014 9.02478 9.99448 8.74995 9.55668C8.47512 9.11889 8.08138 8.76835 7.61473 8.54603L1.83331 5.65394V4.58786C1.83319 4.12676 1.94902 3.67304 2.17014 3.26842C2.39126 2.8638 2.71057 2.52128 3.0987 2.27235C3.48683 2.02342 3.93133 1.87609 4.3913 1.84389C4.85127 1.8117 5.31195 1.89568 5.73098 2.08811Z" fill="#4E8BFF"/>
</g>
<defs>
<clipPath id="clip0_46_273">
<rect width="22" height="22" fill="white" transform="translate(22) rotate(90)"/>
</clipPath>
</defs>
</svg>
