<svg width="24" height="24" viewBox="0 0 24 24" fill="none" xmlns="http://www.w3.org/2000/svg">
<g clip-path="url(#clip0_46_260)">
<path d="M23.2198 5.74294L20.2088 1.67494C19.8385 1.15727 19.3502 0.735308 18.7843 0.444016C18.2184 0.152723 17.5913 0.000492686 16.9548 -5.92728e-05H7.0448C6.41144 -0.00065377 5.78698 0.149164 5.22283 0.437064C4.65868 0.724964 4.17096 1.14272 3.7998 1.65594L0.734803 5.75294C0.235767 6.45663 -0.0219516 7.30301 0.000221156 8.16541C0.0223939 9.0278 0.323265 9.85983 0.857803 10.5369L9.6498 22.8649C9.92999 23.2197 10.2871 23.5062 10.6942 23.7029C11.1013 23.8995 11.5477 24.0011 11.9998 23.9999C12.4596 23.999 12.9131 23.8926 13.3254 23.6889C13.7377 23.4852 14.0977 23.1896 14.3778 22.8249L23.0998 10.6339C23.6583 9.94693 23.973 9.09403 23.9948 8.20893C24.0165 7.32382 23.7439 6.45652 23.2198 5.74294ZM18.5918 2.85094L21.6098 6.92894C21.6258 6.95094 21.6298 6.97694 21.6458 6.99994H16.7538L15.3258 1.99994H16.9548C17.2758 2.00094 17.5918 2.0787 17.8766 2.22674C18.1614 2.37479 18.4066 2.58881 18.5918 2.85094ZM11.9998 19.1179L9.2998 8.99994H14.6998L11.9998 19.1179ZM9.3258 6.99994L10.7538 1.99994H13.2458L14.6738 6.99994H9.3258ZM5.4168 2.83694C5.60235 2.57833 5.84675 2.36756 6.12982 2.22202C6.41289 2.07649 6.72651 2.00037 7.0448 1.99994H8.6738L7.2458 6.99994H2.3178C2.3318 6.97794 2.3358 6.95094 2.3518 6.92994L5.4168 2.83694ZM2.4478 9.32494C2.3756 9.22295 2.31363 9.11409 2.2628 8.99994H7.2318L10.2258 20.2299L2.4478 9.32494ZM13.7708 20.2399L16.7708 8.99994H21.7568C21.6924 9.14921 21.6108 9.29049 21.5138 9.42094L13.7708 20.2399Z" fill="#5C6A83"/>
</g>
<defs>
<clipPath id="clip0_46_260">
<rect width="24" height="24" fill="white"/>
</clipPath>
</defs>
</svg>
