<svg width="22" height="22" viewBox="0 0 22 22" fill="none" xmlns="http://www.w3.org/2000/svg">
<g clip-path="url(#clip0_38_637)">
<path d="M20.8688 4.18547C20.5339 4.04594 20.165 4.00927 19.8091 4.08011C19.4532 4.15096 19.1265 4.32613 18.8705 4.5833L16.5 6.9538L12.2962 2.74997C11.9524 2.40627 11.4861 2.2132 11 2.2132C10.5139 2.2132 10.0476 2.40627 9.70383 2.74997L5.49999 6.9538L3.12949 4.5833C2.8731 4.32699 2.54646 4.15244 2.19088 4.08173C1.8353 4.01103 1.46674 4.04733 1.13179 4.18606C0.796843 4.32479 0.510544 4.55971 0.309089 4.86113C0.107635 5.16255 6.97819e-05 5.51693 -7.62939e-06 5.87947L-7.62939e-06 15.5833C0.00144791 16.7984 0.484801 17.9634 1.34403 18.8226C2.20325 19.6818 3.3682 20.1652 4.58333 20.1666H17.4167C18.6318 20.1652 19.7967 19.6818 20.656 18.8226C21.5152 17.9634 21.9985 16.7984 22 15.5833V5.87947C22.0001 5.5169 21.8927 5.16244 21.6913 4.86092C21.49 4.55939 21.2038 4.32434 20.8688 4.18547ZM20.1667 15.5833C20.1667 16.3126 19.8769 17.0121 19.3612 17.5278C18.8455 18.0436 18.146 18.3333 17.4167 18.3333H4.58333C3.85398 18.3333 3.15451 18.0436 2.63878 17.5278C2.12306 17.0121 1.83333 16.3126 1.83333 15.5833V5.87947L4.85191 8.89805C5.02381 9.0699 5.25693 9.16644 5.49999 9.16644C5.74306 9.16644 5.97618 9.0699 6.14808 8.89805L11 4.04614L15.8519 8.89805C16.0238 9.0699 16.2569 9.16644 16.5 9.16644C16.7431 9.16644 16.9762 9.0699 17.1481 8.89805L20.1667 5.87947V15.5833Z" fill="#5C6A83"/>
</g>
<defs>
<clipPath id="clip0_38_637">
<rect width="22" height="22" fill="white"/>
</clipPath>
</defs>
</svg>
